<svg width="23" height="25" viewBox="0 0 23 25" fill="none" xmlns="http://www.w3.org/2000/svg">
<path d="M5.26627 2.68595L10.3664 0C10.3664 0 14.5561 3.58925 17.0431 6.09504C19.4175 8.48733 22.8282 12.5 22.8282 12.5C22.8282 12.5 19.7406 17.5419 17.0431 20.1327C14.716 22.3679 10.3664 25 10.3664 25H0V23.8938C0 23.8938 1.64148 20.8282 3.529 20.1327C4.98435 19.5965 7.49913 20.1327 7.49913 20.1327C7.49913 20.1327 7.49522 16.4951 8.82251 14.823C10.5278 12.6747 15.4394 12.5 15.4394 12.5L10.7415 4.02893L9.39849 6.09504H6.29932L5.26627 2.68595Z" fill="#474D55"/>
</svg>
